<svg viewBox="0 0 400 400" fill="none" xmlns="http://www.w3.org/2000/svg">
  <path d="M266.143 124.351a14.5 14.5 0 0 1 5.497 6.315 48 48 0 0 1 3.299 11.515c-.911.024-1.816.139-2.704.342-.104 0-.698.312-.802.639a38 38 0 0 0-1.084 5.022l-29.718.178c-.342 0-.297.402 0 .416 0 0 27.132.417 29.718.431-.655 5.409-.105 11.353 3.73 15.186 3.609 3.566 15.883 4.071 20.444.669 3.79-2.838 4.726-11.04 4.458-15.855.892 0 20.982-.356 22.972-.431a.2.2 0 0 0 .148-.06.21.21 0 0 0 0-.295.2.2 0 0 0-.148-.061c-3.388 0-23.016-.148-23.016-.148-.402-4.458-1.487-4.904-1.487-5.112a.65.65 0 0 0-.504-.579 21.6 21.6 0 0 0-3.923-.401c2.08-3.343 3.863-12.437 7.133-18.529 4.844-9.079 23.075-.431 22.778-8.455-.356-8.915-10.252-13.923-20.876-9.198-10.09 4.458-12.72 25.261-12.899 36.122-3.045 0-1.574.089-5.943 0 3.819-5.082 8.679-22.02 7.831-33.863a39.54 39.54 0 0 0-9.496-21.204c-4.576-5.126-9.94-7.295-13.982-3.18-5.943 5.944-.474 12.586 4.606 19.317 5.589 7.43 7.682 11.129 8.44 21.709.357 5.74.246 11.499-.326 17.221h-1.649c1.277-4.175-.372-13.373-1.576-17.697-1.723-6.107-4.666-12.258-9.332-16.493a40.1 40.1 0 0 0-19.39-9.168c-4.383-.743-8.127-.46-10.163.758a3.416 3.416 0 0 0-1.605 4.279c2.467 8.069 19.912 14.666 29.569 20.61m36.211-17.46c9.94-4.457 19.093.223 19.406 8.306.238 6.197-17.638-1.485-22.511 8.009-3.389 6.568-4.889 15.751-6.94 18.931h-1.054c1.485-6.553 5.127-21.13 9.405-26.286 5.468-6.671 14.994-2.778 15.408-2.882.165 0 .328-.268-.162-.446-5.944-2.155-11.991-2.11-16.033 2.674-4.86 5.736-7.92 19.555-9.198 26.984h-1.277c.401-10.401 3.313-31.055 12.956-35.29m-20.981 17.935c-.593-10.49-2.526-14.339-8.395-22.288-4.813-6.464-9.97-12.63-4.651-18.024 3.625-3.685 8.351-1.486 12.453 3.15a38.5 38.5 0 0 1 9.093 20.624c.965 12.036-3.937 29.317-7.43 33.789h-.787a128 128 0 0 0 3.076-20.698c.341-5.944.237-10.075-1.487-15.245a44.4 44.4 0 0 0-5.838-11.04 43 43 0 0 0-3.863-4.74.213.213 0 0 0-.299-.03.2.2 0 0 0-.075.142.2.2 0 0 0 .046.155q.558.584 1.041 1.233c4.635 5.944 9.211 14.621 9.568 22.289.357 7.667-1.173 20.46-2.586 28.038h-.415c.655-5.76.84-11.565.549-17.355m15.143 18.96c2.45 2.244 1.678 17.147-2.764 20.475s-16.019 2.541-19.169-.505c-4.963-4.77-4.457-13.7-2.765-20.327a.9.9 0 0 0 .417.298c1.142.263 2.307.422 3.478.475a27 27 0 0 0 .727 16.345.63.63 0 0 0 .354.321.628.628 0 0 0 .776-.856c-1.873-3.745-2.377-12.066-1.293-15.706 4.636.208 17.042.297 20.239-.52m-29.421-35.156c10.073 8.915 12.659 28.663 11.099 33.477h-.921a50.4 50.4 0 0 0-2.14-12.17c-3.21-10.401-8.589-16.79-16.835-21.604a57.2 57.2 0 0 0-13.715-5.632.214.214 0 1 0-.104.416 61.2 61.2 0 0 1 15.781 7.638 32.9 32.9 0 0 1 12.109 14.68 53.9 53.9 0 0 1 4.458 16.687h-1.397a49.2 49.2 0 0 0-3.15-11.887 15.45 15.45 0 0 0-5.691-6.717c-9.822-6.047-26.746-12.674-29.005-20.103-2.095-6.82 18.099-5.008 29.511 5.215M138.61 185.138c-19.792-6.88-37.534-9.955-48.574-12.734a1.1 1.1 0 0 0-.42-.031 1.07 1.07 0 0 0-.713.419 1.053 1.053 0 0 0 .254 1.499c.117.081.25.136.389.164 7.102 1.708 17.831 3.67 29.435 6.359 19.168 4.458 19.584 5.78 19.896 4.859a.43.43 0 0 0-.026-.321.43.43 0 0 0-.241-.214m156.836 12.021a.3.3 0 0 0-.022-.103.26.26 0 0 0-.145-.144.3.3 0 0 0-.101-.021c-13.032 0-25.707 2.972-32.883 3.641a.65.65 0 0 0-.452.238.7.7 0 0 0-.122.23.7.7 0 0 0-.021.26.68.68 0 0 0 .467.582.7.7 0 0 0 .262.027c5.259-.52 14.367-2.511 22.896-3.611 9.465-1.099 10.134-.43 10.121-1.099m-44.89 30.921a.2.2 0 0 0 .023-.078.3.3 0 0 0-.007-.082.3.3 0 0 0-.041-.071.2.2 0 0 0-.064-.051l-.372-.193-.089.445c.254.119.445.312.55.03" fill="currentColor"/>
  <path d="M340.808 231.795c-3.818-.788-13.253-.476-17.147-.134 3.21-10.966 6.525-25.26 7.86-33.135a26.8 26.8 0 0 0 .625-6.642 1.5 1.5 0 0 0-.264-.552 1.5 1.5 0 0 0-.463-.399c-5.944-3.73-68.219 4.457-72.557 6.612-1.293.639-2.452 3.863-2.971 5.32-3.848-6.33-3.447-7.831-7.742-17.831a94.7 94.7 0 0 0-10.119-18.47c.104-.787 4.22-31.53-.193-39.747-2.971-5.498-19.064-7.429-25.26-7.95 0-.326-.772-5.943-1.099-8.484 5.23-4.369 7.429-12.407 1.753-13.76-4.027-.95-19.926-3.981-31.768-.92-7.43 1.931-13.373 6.27-13.878 14.858-.2 3.262 0 6.535.594 9.748-7.682.847-20.906 2.11-27.652 4.651-8.678 3.269-5.023 41.233-4.101 44.309a119 119 0 0 0-1.412 3.685c-21.62-5.513-70.015-15.795-72.17-15.602a3.4 3.4 0 0 0-2.852 1.486c-.58.134-.788.951-.892 1.486-1.486 7.905 1.204 55.111 1.68 63.12.787 2.883 23.684 9.138 26.656 9.955.149 3.908.936 23.313 1.1 27.297a38 38 0 0 1-3.834-.907c-2.645-1.086-12.779 8.781-11.887 7.965-3.878 3.446 38.321 14.784 41.694 13.832 3.373-.95 10.044-7.325 8.915-10.876a2.97 2.97 0 0 0-1.486-1.411c-3.194-1.679-11.649-3.746-15.171-4.593.342-7.191.342-18.988.327-26.151 4.176 1.041 27.875 6.775 32.155 6.702.307.004.609-.073.876-.223 1.368-.193 2.972-.535 3.106-1.932 0-.416.342-4.041.773-9.42 10.475 3.997 23.179 3.7 25.438 2.778a3.6 3.6 0 0 0 1.486-1.322c.104.134.149.104.936.223 2.972.475 7.727.921 10.401-.476 3.789.609 14.77 1.486 15.587-2.184.104-.49.253-1.486.401-2.689 10.996.594 50.045.327 50.194.327l-.907 4.086a.23.23 0 0 0-.207-.104c0-.09 0-.119 0 0a174 174 0 0 0-18.292-.476c-2.17.104-7.89.372-7.994 2.482a8.36 8.36 0 0 0-.312 5.661c.327 1.174 3.09 3.076 4.116 3.774-5.81-.58-9.198-.356-10.951.268a2.29 2.29 0 0 0-1.797 1.587 2.3 2.3 0 0 0 .608 2.321c1.991 2.733 6.137 3.654 6.582 7.236.847 6.79-16.419 14.472-22.719 17.162 3.165-4.161 11.649-17.251 7.534-20.417-4.577-3.522-43.819-5.067-47.43-4.146-2.541.655-21.218 14.459-20.876 19.318.237 3.164 18.618 6.269 22.035 6.864 3.849.653 31.308 4.933 34.592 2.838a5.6 5.6 0 0 0 3.09-3.09 89 89 0 0 0 16.345-7.548c8.172-5.067 12.749-11.338 4.666-16.612-.966-.624-3.611-2.526-3.225-3.596.832-2.363 12.318-1.487 12.482-1.487 5.334 3.478 15.542 8.841 21.559 10.402 6.36 1.678 36.078-1.576 43.256-2.481.816 2.971 1.605 5.735 2.124 7.429-1.114.09-4.295.371-5.185 1.068-.491.388-.477 1.041.312 1.487 0 4.978-.611 19.867.876 26.584.564 2.51 1.217 3.551 3.819 4.456 4.918 1.589 14.367 1.025 19.316-.297 3.076-.831 3.477-1.486 3.968-3.12 1.694-5.558 1.605-21.961 1.485-27.786a.75.75 0 0 0 .308-.602.75.75 0 0 0-.308-.601 9.8 9.8 0 0 0-3.491-.892c.207-1.665 1.322-10.966 1.484-12.602a8 8 0 0 0 2.051-1.752 7.87 7.87 0 0 0 1.71-3.848c1.485-1.947 3.625-9.213 4.323-11.59 6.627.282 16.344-.104 17.251 0a.273.273 0 0 0 .324-.386.27.27 0 0 0-.161-.134m-200.846 32.064c.996-1.099 2.169-2.242 3.418-3.402 5.304-4.904 12.05-9.837 13.521-10.207 3.566-.923 42.734 1.485 46.716 4.456.669.506.803 1.487.669 2.662-.535 4.665-5.409 12.361-8.247 16.121-3.209-2.764-51.827-9.05-56.077-9.63m72.808-143.922c5.676.535 21.59 2.363 24.324 7.326 3.864 6.983 1.486 30.802.535 38.633a42 42 0 0 0-2.57-3.135c-5.038-5.528-13.685-8.307-21.011-9.718-4.705-.82-9.453-1.38-14.22-1.679-.148 0 .089.223-1.084-2.185-1.754-3.61-1.858-3.551-1.68-3.655a25.3 25.3 0 0 0 5.751-.98c5.022-1.486 8.009-4.458 9.42-11.68.767-4.28.927-8.647.476-12.971zm-12.793 31.887c.936.134 1.189.119 1.263.164 0 .371 3.254 17.83-7.89 18.633-9.213.758-15.275-12.17-18.544-20.803 1.189-.193 2.14-.326 2.779-.416.312 6.776 10.059 19.064 15.468 18.202 6.077-.995 9.064-10.237 6.924-15.78m-22.184-27.34a4.06 4.06 0 0 1 2.481-2.972c2.972-.728 2.972 2.972 5.334 2.764 2.972-.193-.341-7.088 2.214-11.293 2.779-4.636 14.042 4.74 23.15-2.214 1.1 7.831 2.304 13.923.625 21.917-1.486 7.013-4.25 9.599-9.02 10.996-1.96.451-3.944.788-5.943 1.01a1.08 1.08 0 0 0-.55.892c0 .52 1.486 3.179 2.868 6.285 2.065 4.874-.624 13.73-6.063 14.576-3.863.61-11.426-8.053-13.581-14.175-.951-2.704-.668-2.808 1.011-13.373 2.362.164 2.853-4.457 2.971-6.85a1.93 1.93 0 0 0-.49-1.382c-1.07-1.174-1.946.194-4.027-2.407a4.23 4.23 0 0 1-.98-3.774m-9.406-3.105c1.991 9.093 7.221 15.408 10.817 17.162-.654 4.175-1.397 8.826-1.59 10.237a83.2 83.2 0 0 0-25.067 5.201 35.7 35.7 0 0 0-9.851 5.721c-1.634-8.47 2.571-25.023 2.051-29.718-.238-1.991-.803-4.101-2.749-4.532 6.656-2.095 18.989-3.284 26.389-4.071m-27.281 4.457a2.63 2.63 0 0 1 1.872.877 5.82 5.82 0 0 1 .966 3.418c.327 4.457-4.294 20.891-1.694 29.999a21.2 21.2 0 0 0-5.527 8.515c-1.189-7.237-3.165-40.179 4.383-42.809m-53.388 67.697c.12-.698 1.397-1.01 2.096-1.129 5.156-.847 15.869 2.095 15.631 5.676-.357 5.305 1.278 69.584-.119 71.947-1.664 2.838-10.758 1.262-14.383-1.263-1.65-1.144-1.62-2.125-1.575-1.933-1.263-50.594-1.858-72.139-1.65-73.298m34.443 77.667c.758 2.526-5.2 8.335-7.964 9.109s-43.507-9.778-40.847-12.185c-1.233 1.114 6.627-6.122 10.09-7.281.275-.137.59-.174.89-.103.402.179 1.977.58 4.25 1.115.134 3.134.223 4.991.223 4.991.877 4.37 14.859 7.669 17.296 3.641.373-1.427.572-2.894.594-4.367 2.274.564 13.938 3.401 15.468 5.08m17.088-27.206c-3.908.148-28.232-5.557-32.155-6.479-.074-17.414-.431-36.939-.252-39.346.356-5.468-13.552-8.44-18.455-6.835a2.68 2.68 0 0 0-2.02 1.961c-.328 1.977.95 37.147 1.024 39.257-2.422-.653-25.111-6.701-26.047-9.123-.253-5.468-2.675-58.336-.951-63.343 8.083 2.021 77.117 15.943 81.976 19.316 1.219 3.344-1.56 59.867-3.12 64.592m3.492-.877c0 .996-1.323 1.337-2.303 1.486 1.604-3.848 4.799-62.407 3.165-65.854s-76.182-17.935-83.15-19.882a3.24 3.24 0 0 1 2.436-1.04c2.066-.148 78.291 16.88 82.719 19.317.743 2.139 0 17.043-.104 19.495-.267 5.913-2.704 45.676-2.763 46.478m40.118-10.059c-1.738 2.318-7.904 2.035-10.802 1.768h-.713a21.2 21.2 0 0 0 2.199-8.529c1.486-.416 6.924-1.679 7.756-.342.253.387-.549.847-.965 1.07-1.099.51-2.25.898-3.433 1.159a.673.673 0 0 0 .253 1.322c1.486-.208 5.542-.772 6.983-.282a4.54 4.54 0 0 1-2.422 1.709 23.3 23.3 0 0 0-4.145.342.821.821 0 0 0-.417 1.39c.144.14.335.221.536.229a13.7 13.7 0 0 0 4.457-.609c.376.016.745.106 1.085.267-.095.2-.238.374-.416.506zm14.057-.52a1.49 1.49 0 0 1-.936 1.01c-2.749 1.486-9.688 1.218-12.779.906 1.144-.876 1.813-2.303.654-3.09 2.288-1.486 2.05-3.076.55-3.537a8.9 8.9 0 0 0-2.972-.208c.936-.698 1.278-1.485.713-2.333-.817-1.159-2.971-1.01-4.309-.787a169 169 0 0 1-.981-17.712c3.968 2.883 17.118 2.972 21.709.238.223 4.992-1.278 23.343-1.708 25.513zm-12.749-3.373s-.044.029-.044 0zm31.887.327c2.749-8.039 3.135-25.067 2.972-33.581 2.303 3.699 14.859 21.441 14.948 21.589a7 7 0 0 0 1.07 1.278 43.7 43.7 0 0 0 9.985 6.85c3.878 2.051 4.19 1.947 4.161 2.11l-.52 2.229c-.254-.015-30.342-.475-32.661-.475zm6.404 6.671c3.195-2.229 24.919-1.218 25.156-1.367v.164c-2.08 9.955-2.882 13.551-3.135 14.858.134-.578.952-4.457 1.886-8.751.655-3.15 1.487-6.895 2.334-10.862.386-1.813.64-2.972.653-3.061-4.07-2.155-10.282-5.869-13.536-9.153-.817-.832-16.612-22.719-16.76-22.972s-.149-6.776-.312-7.073a.22.22 0 0 0-.117-.066.22.22 0 0 0-.236.099.22.22 0 0 0-.034.131c-.148 0 0 31.768-2.749 41.337l-17.117.163c.104-.832.208-1.797.327-2.838 6.894.877 10.03-6.686 8.202-12.853-1.085-3.387-3.878-3.907-7.073-2.273a39.6 39.6 0 0 0 0-5.943 1.71 1.71 0 0 0-.52-1.977c-2.214-2.08-8.41-2.303-11.426-2.303s-9.228.238-11.427 2.303a1.5 1.5 0 0 0-.446.565c-1.129 2.036 1.041 19.881 1.308 20.267a30 30 0 0 0-3.819 1.026v-2.378c-.089-5.185-16.671-8.068-17.236-11.025-.193-1.01-.505-3.269-.862-5.943-2.006-14.681-1.708-14.116-2.035-14.116a.206.206 0 0 0-.208.207c0 .402 1.604 16.568 2.184 20.001.579 3.432 17.043 6.76 17.117 10.876 0 3.21-.713 11.174-3.492 12.318-1.679.713-14.665 1.367-25.022-2.273.223-2.883 4.354-54.488 2.363-56.776-.758-.876-9.659-3.105-10.788-3.388 4.458-10.104 7.756-18.425 38.752-23.283a68 68 0 0 0 3.15 8.454c3.15 6.731 8.484 13.997 15.869 13.373 8.485-.728 9.852-9.926 8.5-18.321-.09-.594-.179-.98-.253-1.322a115 115 0 0 1 12.14 1.872c6.998 1.486 15.601 4.309 20.401 9.629 5.186 5.705 9.717 14.517 12.897 21.56 4.577 10.133 4.548 12.749 8.485 18.588a269 269 0 0 0-6.954 26.583c-.595 2.778-1.486 7.013-2.333 10.861-1.233 5.943-1.976 9.704-1.902 8.915-.134.802 0 .773 0 .967a105.5 105.5 0 0 1-13.982-7.549c-1.56-1.04-9.525-6.136-7.95-7.281zm-22.63-21.486c0-.772.089-1.486.119-2.229 2.69-1.084 5.082-.921 5.81 1.887 1.486 5.097-.862 11.887-6.85 11.887 0-.713.253-2.748.282-2.971 6.835.921 6.791-11.59.639-8.574m-.579 7.935c.208-2.348.386-4.829.535-7.162a3.7 3.7 0 0 1 2.184 0c1.768.639 1.486 6.776-2.794 7.162zm48.603 32.972a97 97 0 0 1-16.523-7.162c-1.486-.787-9.183-4.978-9.703-6.598a8.33 8.33 0 0 1-.134-4.457c1.992 3.878 14.622 10.402 18.678 12.317a43.5 43.5 0 0 0 5.736 2.229c6.864 2.452 36.314-1.485 43.55-2.377.089.313.713 2.705.952 3.567-6.3.727-36.642 4.042-42.63 2.481zm66.388 37.369c-2.169 1.843-15.185 3.388-21.322 1.487-2.227-.698-2.673-1.412-3.208-3.67a51 51 0 0 1-.923-7.43c3.047 1.873 8.634 2.348 12.214 2.452 5.395.119 10.7 0 15.038-2.452-.089 1.574-.595 8.587-1.799 9.613m1.844-10.192a23.8 23.8 0 0 1-9.272 1.917c-4.25.207-14.206.178-18.054-1.873a208 208 0 0 1-.312-8.558c1.487 1.782 9.405 2.584 12.571 2.689 5.646.118 10.892 0 15.408-2.675 0-.148-.045 3.373-.326 8.5zm.341-9.02c-7.428 3.745-25.868 2.051-27.994 0v-9.137c4.725 1.678 23.404 1.56 28.083 0-.029 1.707-.013 5.185-.073 9.137zm-2.972-10c.055.016.111.01.159-.015a.22.22 0 0 0 .109-.119s0-.267.089-.742q1.439.198 2.824.638c-3.254 1.486-22.838 1.62-27.727.178a.17.17 0 0 1-.083-.058.16.16 0 0 1-.031-.097q0-.055.031-.097a.2.2 0 0 1 .083-.06 24 24 0 0 1 4.16-.742c.099.412.248.812.446 1.188.118.12.312.134.297-.163-.014-.297-4.889-19.539-5.631-23.774a4.9 4.9 0 0 0 4.532-.758c1.634 4.577 6.85 25.172 7.162 25.172a.22.22 0 0 0 .147-.072.22.22 0 0 0 .06-.151l-.43-2.007h2.051c0 .282.163 1.724.178 1.828.014.103.446.357.415-.193 0-1.338-1.248-23.492-1.277-23.893q.321-.156.668-.238c.163.802 5.395 21.991 5.796 23.64 0 .149 0 .401.281.341.283-.058.165-.325 0-1.293l2.274.165v.252c0 .239.372.178.417 0 0 .163 2.764-28.35 2.971-30.624a3.48 3.48 0 0 0 2.778.639c-.029.223-3.074 30.95-2.762 31.055zm-13.373-29.539a6.8 6.8 0 0 0-1.783-3.819c2.037.609 2.468 1.055 2.972 2.452a6.86 6.86 0 0 1 .312 3.477c-.2.734-.2 1.509 0 2.243a5 5 0 0 0-.712.223c-.922-2.63-2.973-2.6-2.973-5.245a10 10 0 0 0-.415-2.823 42 42 0 0 0 2.363 3.789c.147.193.43-.089.252-.297zm.745 18.752c.073.727.653 7.042.8 8.647h-2.124a555 555 0 0 0-1.873-8.157zm-.089-1.144-3.389.446c-.298-1.235-.61-2.483-.92-3.716a203 203 0 0 0 3.997-.609c.058.64.267 3.224.325 3.879zm4.619-.684c-.237-1.13-.816-3.685-.861-3.834 1.293-.223 5.691-.981 6.597-1.159 0 .639-.252 3.343-.313 4.028-1.44.312-3.283.637-5.452.965zm5.365 0c-.267 3.848-.684 10.283-.699 10.64q-1.159-.001-2.451-.089c-.356-1.799-1.888-9.006-1.992-9.497 2.006-.401 3.731-.757 5.156-1.099zm2.838-20.312c.18-1.883.473-3.754.876-5.602a2.77 2.77 0 0 1 2.363.372 48 48 0 0 1-.595 5.572c-.134.52-.163.654-.504.698-.669.045-2.022-.52-2.124-1.085zm1.946 17.713c.134-1.101.268-2.216.386-3.33a17 17 0 0 0 2.586-.757 7.2 7.2 0 0 1-2.956 4.042zm2.481-5.321a13 13 0 0 1-1.93.595c.267-2.497 1.841-17.029 1.841-18.054 0-1.486-2.644-2.036-4.012-1.486-.46.208-.593 1.085-.727 1.858-.743 4.145-1.621 14.487-1.962 18.692l-6.968 1.277c-1.739-7.577-1.59-7.161-1.784-7.354a.75.75 0 0 0-.49-.208 3.9 3.9 0 0 1 .105-1.991 7.43 7.43 0 0 0-.121-3.893 3.83 3.83 0 0 0-1.484-2.289 12.8 12.8 0 0 0-3.864-1.307.47.47 0 0 0-.413.088.47.47 0 0 0-.166.387q.047.19.118.372c1.159 2.763.357 4.027 1.159 5.676.803 1.649 2.156 1.902 2.646 3.804 0 .148.415 7.014.43 7.428l-4.204.669c-.298-1.128-2.334-9.167-3.136-9.955-1.485-1.486-5.736.179-5.943 1.486-.134.743 1.901 8.708 2.095 9.465-7.653 1.115-15.765 2.125-22.943 2.794-3.134.283-22.288 2.035-21.218-1.099 1.485-6.866 4.459-19.466 5.052-22.111v-.208c0-.223.104-.446 0 .208 0-.223.089-.356.118-.431l3.716-14.368c.49-1.768 3.863-13.789 5.571-14.636 3.789-1.872 66.063-9.926 71.323-6.404.892 3.818-10.06 49.182-12.793 51.01z" fill="currentColor"/>
  <path d="M197.615 123.697v-1.145a.7.7 0 0 0-.699-.698.71.71 0 0 0-.713.698v1.338a.7.7 0 0 0 .278.439.698.698 0 0 0 1.104-.632zm94.962 91.441c-.43-.416-1.039-.907-1.605-.728-.936.297-1.871 2.674-2.272 3.655a59.5 59.5 0 0 0-2.675 9.004c.609 1.576 10.892-.49 12.288-1.173.445-.208.385-.743.238-1.219a35.5 35.5 0 0 0-5.974-9.539m-6.151 11.738c.268-1.233 3.654-10.683 4.813-11.545 1.799 1.025 5.41 7.325 6.376 9.703-1.338.535-10.417 2.838-11.189 1.842m-120.981 31.515c-.148.105-3.388 2.156-3.536 2.305a.2.2 0 0 0-.087.07.2.2 0 0 0 0 .215.2.2 0 0 0 .087.072c.832.236 3.61.548 4.457.637 20.327-5.096 20.461-5.096 20.208-5.096a.534.534 0 0 0 .461-.579c0-.252-.401-2.007-.52-2.542zm39.376-140.905c.416 0 1.233.193 1.397.208q1.355.14 2.674.475l1.338.238a.225.225 0 0 0 .257-.126.22.22 0 0 0-.079-.275 5.55 5.55 0 0 0-2.719-1.248 5.1 5.1 0 0 0-2.972.252.25.25 0 0 0-.153.106.3.3 0 0 0-.035.089.25.25 0 0 0 .04.182.24.24 0 0 0 .157.1.3.3 0 0 0 .095-.001m-11.768 1.307a27 27 0 0 1 1.486-.253q1.352-.294 2.734-.386l1.486-.163a.22.22 0 0 0 .157-.066.22.22 0 0 0 0-.315.23.23 0 0 0-.157-.065 5.7 5.7 0 0 0-3.038-.392 5.7 5.7 0 0 0-2.802 1.239.22.22 0 0 0-.22.189.222.222 0 0 0 .354.212m14.859 2.585a.7.7 0 0 0-.699.699v1.337a.71.71 0 0 0 .795.602.71.71 0 0 0 .602-.795v-1.144a.7.7 0 0 0-.2-.498.7.7 0 0 0-.498-.201M92.592 250.384c2.066.668 6.88 2.465 9.094 2.198.267 0 .565-.268.758-.743 1.486-3.343.416-20.342-.119-23.625-.372-2.363-8.916-5.29-10.98-3.611-1.338 1.085-.67 13.67-.52 15.423.385 4.235-.016 9.778 1.767 10.358m-.58-24.994c1.606-1.159 9.05 1.59 9.288 2.972.371 2.333 1.753 21.946.267 23.477-1.917.283-6.998-1.277-8.915-1.872-1.353-.446-.892-6.36-1.115-10.015-.104-2.466-.267-12.258.476-14.562M197.6 132.597a.3.3 0 0 0-.119-.028.3.3 0 0 0-.119.028c-.372.134-.594.55-.654 1.159a6.47 6.47 0 0 0 1.486 4.324 2.98 2.98 0 0 0 1.994 1.188 2.96 2.96 0 0 0 2.241-.609 7.2 7.2 0 0 0 2.05-2.749.6.6 0 0 0 0-.535c-.46-.713-1.56.298-6.879-2.778m-.134.505a14.9 14.9 0 0 0 5.542 2.972c-3.18 5.409-6.374-1.887-5.542-2.972m3.64-3.492c.951.179 3.581-.148 4.146-1.114.282-.461 0-.609-.624-2.511a44 44 0 0 0-1.976-4.844c-.268-.416-.609 0-.416.252a32 32 0 0 0 1.961 6.642q-1.613.756-3.299 1.338a.2.2 0 0 0 .012.086.22.22 0 0 0 .196.151m54.8 154.517c5.571-3.535 1.233-6.79-2.452-5.245-.907-1.65-1.115-1.783-2.972-1.694-9.643.49-53.194 10.564-53.61 10.729-2.199.905 3.387 14.026 5.601 15.749.506.386.342.462 5.795-.608.357 3.239 1.769 8.914 5.067 9.093a19 19 0 0 0 4.458-1.396 88 88 0 0 0 8.781 7.651c3.418 2.289 25.26-23.224 28.53-26.196.936-.312 1.767-.519 1.663-2.837 2.824-.52 5.009-2.259 3.506-4.755-1.01-1.516-2.762-1.278-4.367-.491m.52-4.041c.608.223.92.461.728 1.07a7.4 7.4 0 0 1-1.723 2.465 35 35 0 0 0-1.382-3.551 3.45 3.45 0 0 1 2.377.016m-15.81-.491c.55 2.602.921 4.013 1.62 6.405l-10.297 1.946a74 74 0 0 0-2.066-6.36c1.947-.37 9.153-1.723 10.743-1.991m-15.23 19.838a20.7 20.7 0 0 0 2.392 5.288 355 355 0 0 1-7.831 3.685 29 29 0 0 0-3.432-7.042zm-4.205 0a77 77 0 0 0-1.902-7.653l11.887-2.57a72 72 0 0 0 2.347 7.428c-4.086.862-8.35 1.828-12.332 2.735zm4.948.074c-.164-.239-1.174.118 9.762-2.392a8.5 8.5 0 0 0 1.204 3.105l-8.708 4.264a20 20 0 0 0-2.258-5.038zm10.401-2.557c5.646-1.307 10.832-2.555 14.414-3.507l-13.121 6.405a8.9 8.9 0 0 0-1.278-2.956zm-2.511-.46a76 76 0 0 0-1.813-7.519l10.149-2.496c0 .075.683 2.363.995 3.343.149.446 1.412 4.042 1.486 4.102-3.076.682-10.58 2.45-10.832 2.51zm-4.592-14.755c.491 2.704.951 4.459 1.486 6.478l-11.887 2.615c-.698-2.363-1.174-3.907-2.199-6.582 2.318-.535 10.817-2.228 12.615-2.571zm-13.09 2.6c.579 2.971 1.01 4.532 1.634 6.732-.995.223-9.123 2.258-9.123 2.258-.297 0-.178.461.119.401 0 0 8.811-1.634 9.257-1.738 0 0 .639 2.556 2.466 7.563l-9.584 2.14a118 118 0 0 0-5.156-15.216zm-13.448 18.827c-2.258-1.694-7.429-14.175-5.869-14.859 0 0 3.403-.743 8.514-1.813a98 98 0 0 0 5.082 15.23c-7.816 1.754-7.474 1.576-7.712 1.382zm10.402 7.905c-2.512 0-4.012-5.423-4.458-7.891 0-.281-.788 0 6.984-1.619.386-.075-.223-.178 1.634 3.685a19 19 0 0 0 1.961 3.447 40 40 0 0 1-6.062 2.318zm13.848 6.358a100 100 0 0 1-8.692-6.835c2.555-1.054 5.453-2.405 7.949-3.595a38.4 38.4 0 0 0 6.597 6.063c-1.01.861-4.442 4.042-5.794 4.309zm6.285-4.813a40 40 0 0 0-6.552-5.869l9.331-4.592a17.5 17.5 0 0 0 4.458 3.314 218 218 0 0 1-7.177 7.087zm7.742-7.624a19 19 0 0 0-4.19-3.223c6.389-3.224 10.058-5.185 16.017-8.485-2.644 2.332-9.361 9.198-11.768 11.65zm14.176-13.966c-.64.46-9.392 2.6-10.149 2.778a81.5 81.5 0 0 0-4.146-14.234c2.883-.49 8.588-1.487 10.713-1.248.287.337.537.705.742 1.099a7.9 7.9 0 0 0-2.45 2.675c-.149.372.237.564.43.386a9.8 9.8 0 0 1 2.571-1.946 37 37 0 0 1 1.754 4.293 17.5 17.5 0 0 0-3.538 3.21c-.191.239-.133.417 0 .491.357.207.386-.328 3.895-2.408.353 1.204.552 2.446.593 3.7-.074.268-.118.952-.357 1.144zm3.699-3.983a6.34 6.34 0 0 1-2.437 1.725 22 22 0 0 0-.64-3.136c.968-.491 2.468-1.115 2.974-.208a1.325 1.325 0 0 1 .163 1.561z" fill="currentCol"/>
</svg>
